<?xml version="1.0" encoding="utf-8"?>
<!-- Generator: Adobe Illustrator 16.2.1, SVG Export Plug-In . SVG Version: 6.00 Build 0)  -->
<!DOCTYPE svg PUBLIC "-//W3C//DTD SVG 1.1//EN" "http://www.w3.org/Graphics/SVG/1.1/DTD/svg11.dtd">
<svg version="1.1" id="Layer_1" xmlns="http://www.w3.org/2000/svg" xmlns:xlink="http://www.w3.org/1999/xlink" x="0px" y="0px"
	 width="54px" height="54px" viewBox="73 73 54 54" enable-background="new 73 73 54 54" xml:space="preserve">
<g>
	<path fill="#404040" d="M111.155,95.644c0.122-2.843-0.707-5.128-1.827-6.958s-3.152-3.634-5.389-3.43
		c-1.338,0.121-1.914,0.625-2.218,1.342s-0.376,2.335-0.376,3.022c0,1.235,0,17.112,0,17.112c3.244-0.433,6.242-2.312,8.123-5.283
		C110.519,99.791,111.071,97.585,111.155,95.644z"/>
	<path fill="#404040" d="M99.676,74.5c-14.513,0-26.277,11.584-26.277,25.873c0,13.273,10.115,24.173,23.187,25.662
		c0.648,0.033,1.022-0.029,1.328-0.29c0.248-0.211,0.359-0.563,0.359-0.866l0.014-15.419c-7.076-0.736-12.736-6.569-12.648-13.731
		c0.083-6.842,4.795-12.323,11.031-13.613c0.166-0.034,0.278-0.065,0.365,0.022c0.097,0.096,0.041,0.33,0.041,0.33l-0.471,2.291
		c0,0-0.032,0.142-0.075,0.186s-0.098,0.065-0.162,0.084c-2.709,0.848-5.16,2.676-6.342,4.896c-0.986,1.851-1.627,3.232-1.627,5.751
		c0,5.423,4.264,10.39,9.889,11.065V89.62c0-1.787,0.092-3.877,1.146-5.305c0.821-1.112,2.252-1.798,4.508-1.798
		c3.245,0,7.132,2.381,9.095,7.528c0.592,1.556,0.944,3.527,0.938,5.654c-0.017,7.141-5.584,12.984-12.628,13.751l-0.014,15.43
		c0,0.408,0.129,0.711,0.365,0.893c0.284,0.22,0.524,0.311,1.32,0.243c0.296-0.026,0.857-0.097,1.099-0.139
		c12.397-2.076,21.834-12.706,21.834-25.504C125.951,86.083,114.188,74.5,99.676,74.5z"/>
</g>
</svg>