<?xml version="1.0" encoding="utf-8"?>
<!-- Generator: Adobe Illustrator 18.0.0, SVG Export Plug-In . SVG Version: 6.00 Build 0)  -->
<!DOCTYPE svg PUBLIC "-//W3C//DTD SVG 1.1//EN" "http://www.w3.org/Graphics/SVG/1.1/DTD/svg11.dtd">
<svg version="1.1" id="Layer_1" xmlns="http://www.w3.org/2000/svg" xmlns:xlink="http://www.w3.org/1999/xlink" x="0px" y="0px"
	 viewBox="170 170 60 60" enable-background="new 170 170 60 60" xml:space="preserve">
<g>
	<path fill="#404040" d="M201.8,229c0,0.2-0.1,0.3-0.2,0.5c-0.1,0.1-0.3,0.2-0.5,0.2c-0.2,0-0.4-0.1-0.5-0.2
		c-0.1-0.1-0.2-0.3-0.2-0.5c0-0.2,0.1-0.3,0.2-0.5c0.1-0.1,0.3-0.2,0.5-0.2c0.2,0,0.4,0.1,0.5,0.2
		C201.7,228.6,201.8,228.8,201.8,229z"/>
	<path fill="#404040" d="M173.6,224.2h-1.5v5.4h-0.9v-5.4H170v-0.8h1.3v-2.1c0-0.7,0.2-1.3,0.5-1.7c0.3-0.4,0.9-0.6,1.6-0.6
		c0.1,0,0.2,0,0.4,0c0.1,0,0.3,0,0.4,0.1L174,220c-0.1,0-0.2,0-0.3-0.1c-0.1,0-0.2,0-0.3,0c-0.2,0-0.4,0-0.6,0.1
		c-0.2,0.1-0.3,0.2-0.4,0.3c-0.1,0.1-0.1,0.3-0.2,0.5c0,0.2,0,0.4,0,0.6v2h1.5L173.6,224.2L173.6,224.2L173.6,224.2z"/>
	<path fill="#404040" d="M179.3,225.6c0-0.5-0.1-0.9-0.4-1.2c-0.3-0.3-0.7-0.4-1.2-0.4c-0.4,0-0.7,0.1-1,0.2
		c-0.3,0.1-0.6,0.3-0.8,0.5l-0.5-0.6c0.3-0.3,0.6-0.5,1-0.6c0.4-0.2,0.9-0.2,1.4-0.2c0.3,0,0.6,0,0.9,0.1c0.3,0.1,0.5,0.2,0.8,0.4
		c0.2,0.2,0.4,0.4,0.5,0.7c0.1,0.3,0.2,0.6,0.2,1v2.7c0,0.2,0,0.5,0,0.7c0,0.3,0,0.5,0.1,0.6h-0.8c0-0.1,0-0.3-0.1-0.5
		c0-0.2,0-0.3,0-0.5h0c-0.3,0.4-0.6,0.7-1,0.9c-0.4,0.2-0.8,0.3-1.3,0.3c-0.2,0-0.5,0-0.7-0.1c-0.3-0.1-0.5-0.2-0.7-0.3
		c-0.2-0.1-0.4-0.3-0.5-0.6c-0.1-0.2-0.2-0.5-0.2-0.9c0-0.5,0.1-0.9,0.4-1.1c0.2-0.3,0.6-0.5,1-0.6c0.4-0.1,0.9-0.2,1.4-0.3
		c0.5,0,1.1-0.1,1.6-0.1L179.3,225.6L179.3,225.6L179.3,225.6z M179.1,226.5c-0.4,0-0.7,0-1.1,0c-0.4,0-0.7,0.1-1,0.2
		c-0.3,0.1-0.6,0.2-0.7,0.4c-0.2,0.2-0.3,0.4-0.3,0.7c0,0.2,0,0.4,0.1,0.6c0.1,0.2,0.2,0.3,0.3,0.4c0.1,0.1,0.3,0.2,0.5,0.2
		c0.2,0,0.3,0.1,0.5,0.1c0.3,0,0.6-0.1,0.8-0.2c0.2-0.1,0.5-0.3,0.6-0.4c0.2-0.2,0.3-0.4,0.4-0.7c0.1-0.2,0.1-0.5,0.1-0.8v-0.5
		L179.1,226.5L179.1,226.5z"/>
	<path fill="#404040" d="M183.9,223.6c0.4-0.2,0.8-0.3,1.2-0.3c0.2,0,0.3,0,0.5,0.1c0.2,0,0.4,0.1,0.5,0.2c0.2,0.1,0.3,0.2,0.5,0.4
		c0.1,0.2,0.3,0.4,0.4,0.6c0.2-0.4,0.5-0.7,0.9-1c0.4-0.2,0.8-0.3,1.3-0.3c0.8,0,1.4,0.2,1.8,0.7c0.4,0.5,0.6,1.1,0.6,1.8v3.8h-0.9
		v-3.4c0-0.7-0.1-1.2-0.4-1.6c-0.2-0.4-0.7-0.6-1.2-0.6c-0.3,0-0.6,0.1-0.8,0.2c-0.2,0.1-0.4,0.3-0.5,0.5c-0.1,0.2-0.2,0.5-0.3,0.7
		c-0.1,0.3-0.1,0.6-0.1,0.8v3.3h-0.9V226c0-0.3,0-0.6-0.1-0.8c0-0.2-0.1-0.5-0.2-0.6c-0.1-0.2-0.3-0.3-0.5-0.4
		c-0.2-0.1-0.4-0.1-0.7-0.1c-0.2,0-0.4,0-0.6,0.1c-0.2,0.1-0.4,0.2-0.6,0.4c-0.2,0.2-0.3,0.4-0.4,0.8c-0.1,0.3-0.2,0.7-0.2,1.1v3.2
		h-0.9v-4.8c0-0.2,0-0.4,0-0.6c0-0.3,0-0.5,0-0.7h0.9c0,0.2,0,0.4,0,0.6c0,0.2,0,0.4,0,0.5h0C183.3,224.1,183.5,223.8,183.9,223.6z"
		/>
	<path fill="#404040" d="M199.5,226.5c0,0.5-0.1,0.9-0.2,1.3c-0.2,0.4-0.4,0.7-0.7,1c-0.3,0.3-0.6,0.5-1,0.7
		c-0.4,0.2-0.8,0.2-1.3,0.2c-0.5,0-0.9-0.1-1.3-0.2c-0.4-0.2-0.8-0.4-1-0.7c-0.3-0.3-0.5-0.6-0.7-1c-0.2-0.4-0.2-0.8-0.2-1.3
		c0-0.5,0.1-0.9,0.2-1.3c0.2-0.4,0.4-0.7,0.7-1c0.3-0.3,0.6-0.5,1-0.7c0.4-0.2,0.8-0.2,1.3-0.2c0.5,0,0.9,0.1,1.3,0.2
		c0.4,0.2,0.8,0.4,1,0.7c0.3,0.3,0.5,0.6,0.7,1C199.4,225.6,199.5,226.1,199.5,226.5z M198.5,226.5c0-0.3-0.1-0.7-0.2-1
		c-0.1-0.3-0.3-0.6-0.5-0.8c-0.2-0.2-0.4-0.4-0.7-0.5c-0.3-0.1-0.6-0.2-1-0.2c-0.4,0-0.7,0.1-1,0.2c-0.3,0.1-0.5,0.3-0.7,0.5
		c-0.2,0.2-0.4,0.5-0.5,0.8c-0.1,0.3-0.2,0.6-0.2,1c0,0.3,0.1,0.7,0.2,1c0.1,0.3,0.3,0.6,0.5,0.8c0.2,0.2,0.4,0.4,0.7,0.5
		c0.3,0.1,0.6,0.2,1,0.2c0.4,0,0.7-0.1,1-0.2c0.3-0.1,0.5-0.3,0.7-0.5c0.2-0.2,0.4-0.5,0.5-0.8C198.5,227.2,198.5,226.9,198.5,226.5
		z"/>
	<path fill="#404040" d="M207.5,229.6c0-0.2,0-0.4,0-0.6c0-0.2,0-0.4,0-0.5h0c-0.2,0.4-0.5,0.7-0.9,0.9c-0.4,0.2-0.8,0.3-1.3,0.3
		c-0.8,0-1.4-0.2-1.8-0.7c-0.4-0.5-0.6-1.1-0.6-1.8v-3.8h0.9v3.4c0,0.3,0,0.6,0.1,0.9c0.1,0.3,0.1,0.5,0.3,0.7
		c0.1,0.2,0.3,0.3,0.5,0.4c0.2,0.1,0.5,0.2,0.8,0.2c0.2,0,0.5,0,0.7-0.1c0.2-0.1,0.4-0.2,0.6-0.4c0.2-0.2,0.3-0.4,0.4-0.8
		c0.1-0.3,0.2-0.7,0.2-1.1v-3.2h0.9v4.8c0,0.2,0,0.4,0,0.6c0,0.3,0,0.5,0,0.7L207.5,229.6L207.5,229.6L207.5,229.6z"/>
	<path fill="#404040" d="M213.6,224.9c-0.1-0.3-0.3-0.5-0.6-0.6c-0.3-0.2-0.6-0.2-0.9-0.2c-0.2,0-0.3,0-0.5,0.1
		c-0.2,0-0.3,0.1-0.4,0.2c-0.1,0.1-0.2,0.2-0.3,0.3c-0.1,0.1-0.1,0.3-0.1,0.4c0,0.3,0.1,0.5,0.4,0.7c0.2,0.2,0.6,0.3,1.1,0.4
		c0.7,0.1,1.3,0.4,1.6,0.7c0.3,0.3,0.5,0.7,0.5,1.2c0,0.4-0.1,0.7-0.2,0.9c-0.1,0.2-0.3,0.4-0.5,0.6c-0.2,0.2-0.5,0.3-0.7,0.3
		c-0.3,0.1-0.6,0.1-0.8,0.1c-0.5,0-0.9-0.1-1.4-0.3c-0.4-0.2-0.8-0.5-1.1-0.9l0.7-0.5c0.2,0.3,0.4,0.5,0.7,0.7
		c0.3,0.2,0.6,0.3,1,0.3c0.2,0,0.4,0,0.6-0.1c0.2,0,0.3-0.1,0.5-0.2c0.1-0.1,0.2-0.2,0.3-0.3c0.1-0.1,0.1-0.3,0.1-0.5
		c0-0.3-0.2-0.6-0.5-0.7c-0.3-0.2-0.8-0.3-1.4-0.5c-0.2,0-0.4-0.1-0.6-0.2c-0.2-0.1-0.4-0.2-0.6-0.3c-0.2-0.1-0.3-0.3-0.4-0.5
		c-0.1-0.2-0.2-0.4-0.2-0.7c0-0.3,0.1-0.6,0.2-0.8c0.1-0.2,0.3-0.4,0.5-0.6c0.2-0.1,0.4-0.3,0.7-0.3c0.3-0.1,0.5-0.1,0.8-0.1
		c0.4,0,0.8,0.1,1.3,0.3c0.4,0.2,0.7,0.5,0.9,0.8L213.6,224.9z"/>
	<g>
		<path fill="#404040" d="M201.9,188.1c0.1-2.4-0.6-4.3-1.5-5.9c-0.9-1.5-2.7-3.1-4.5-2.9c-1.1,0.1-1.6,0.5-1.9,1.1
			c-0.3,0.6-0.3,2-0.3,2.5c0,1,0,14.4,0,14.4c2.7-0.4,5.3-2,6.9-4.5C201.3,191.6,201.8,189.7,201.9,188.1z"/>
		<path fill="#404040" d="M192.2,170.2C180,170.2,170,180,170,192c0,11.2,8.5,20.4,19.6,21.6c0.5,0,0.9,0,1.1-0.2
			c0.2-0.2,0.3-0.5,0.3-0.7l0-13c-6-0.6-10.7-5.5-10.7-11.6c0.1-5.8,4-10.4,9.3-11.5c0.1,0,0.2-0.1,0.3,0c0.1,0.1,0,0.3,0,0.3
			l-0.4,1.9c0,0,0,0.1-0.1,0.2c0,0-0.1,0.1-0.1,0.1c-2.3,0.7-4.4,2.3-5.4,4.1c-0.8,1.6-1.4,2.7-1.4,4.9c0,4.6,3.6,8.8,8.3,9.3V183
			c0-1.5,0.1-3.3,1-4.5c0.7-0.9,1.9-1.5,3.8-1.5c2.7,0,6,2,7.7,6.4c0.5,1.3,0.8,3,0.8,4.8c0,6-4.7,11-10.7,11.6l0,13
			c0,0.3,0.1,0.6,0.3,0.8c0.2,0.2,0.4,0.3,1.1,0.2c0.2,0,0.7-0.1,0.9-0.1c10.5-1.8,18.4-10.7,18.4-21.5
			C214.4,180,204.4,170.2,192.2,170.2z"/>
	</g>
</g>
</svg>
