<?xml version="1.0" encoding="utf-8"?>
<!-- Generator: Adobe Illustrator 16.2.1, SVG Export Plug-In . SVG Version: 6.00 Build 0)  -->
<!DOCTYPE svg PUBLIC "-//W3C//DTD SVG 1.1//EN" "http://www.w3.org/Graphics/SVG/1.1/DTD/svg11.dtd">
<svg version="1.1" id="Layer_1" xmlns="http://www.w3.org/2000/svg" xmlns:xlink="http://www.w3.org/1999/xlink" x="0px" y="0px"
	 width="54px" height="54px" viewBox="0 0 54 54" enable-background="new 0 0 54 54" xml:space="preserve">
<g>
	<path fill="#FFFFFF" d="M37.757,22.145c0.122-2.844-0.707-5.129-1.827-6.959s-3.152-3.634-5.389-3.43
		c-1.338,0.121-2.137,0.625-2.441,1.342s-0.6,2.336-0.6,3.022c0,1.235,0,17.112,0,17.112c4-0.434,6.465-2.312,8.346-5.283
		C36.898,26.291,37.673,24.085,37.757,22.145z"/>
	<path fill="#FFFFFF" d="M26.277,1C11.765,1,0,12.584,0,26.873c0,13.273,10.115,24.173,23.188,25.662
		c0.648,0.033,1.021-0.029,1.328-0.29c0.248-0.211,0.359-0.563,0.359-0.866l0.014-15.419c-7.076-0.735-12.736-6.569-12.648-13.731
		c0.083-6.842,4.795-12.322,11.031-13.612c0.166-0.034,0.278-0.065,0.365,0.021c0.097,0.097,0.041,0.33,0.041,0.33l-0.471,2.291
		c0,0-0.032,0.143-0.075,0.187s-0.099,0.064-0.162,0.084c-2.709,0.848-5.16,2.676-6.343,4.896c-0.985,1.851-1.822,3.232-1.822,5.751
		c0,5.424,4.695,10.391,9.695,11.065V16.12c0-1.787,0.287-3.877,1.34-5.306c0.822-1.111,2.35-1.797,4.605-1.797
		c3.246,0,7.182,2.381,9.145,7.527c0.592,1.557,0.968,3.527,0.962,5.654C40.535,29.34,34.98,35.184,27.936,35.95l-0.007,15.43
		c0,0.408,0.132,0.711,0.368,0.894c0.284,0.22,0.525,0.311,1.32,0.242c0.297-0.025,0.858-0.097,1.101-0.139
		c12.396-2.076,21.835-12.706,21.835-25.504C52.553,12.583,40.789,1,26.277,1z"/>
</g>
</svg>
